<mxfile host="Electron" modified="2023-11-16T14:01:08.433Z" agent="Mozilla/5.0 (Windows NT 10.0; Win64; x64) AppleWebKit/537.36 (KHTML, like Gecko) draw.io/22.0.2 Chrome/114.0.5735.289 Electron/25.8.4 Safari/537.36" etag="kcW3Vw37bOJZPHvNZJ0o" version="22.0.2" type="device">
  <diagram id="prtHgNgQTEPvFCAcTncT" name="Page-1">
    <mxGraphModel dx="1276" dy="606" grid="1" gridSize="10" guides="1" tooltips="1" connect="1" arrows="1" fold="1" page="1" pageScale="1" pageWidth="827" pageHeight="1169" math="0" shadow="0">
      <root>
        <mxCell id="0" />
        <mxCell id="1" parent="0" />
        <mxCell id="1sUiPSsAPYxyv5YN31Tx-9" style="edgeStyle=orthogonalEdgeStyle;rounded=1;orthogonalLoop=1;jettySize=auto;html=1;entryX=0.5;entryY=0;entryDx=0;entryDy=0;curved=1;" parent="1" source="1sUiPSsAPYxyv5YN31Tx-1" target="1sUiPSsAPYxyv5YN31Tx-3" edge="1">
          <mxGeometry relative="1" as="geometry">
            <Array as="points">
              <mxPoint x="440" y="150" />
            </Array>
          </mxGeometry>
        </mxCell>
        <mxCell id="1sUiPSsAPYxyv5YN31Tx-34" style="edgeStyle=orthogonalEdgeStyle;rounded=0;orthogonalLoop=1;jettySize=auto;html=1;exitX=0;exitY=0;exitDx=0;exitDy=0;entryX=0;entryY=1;entryDx=0;entryDy=0;" parent="1" source="1sUiPSsAPYxyv5YN31Tx-1" target="1sUiPSsAPYxyv5YN31Tx-25" edge="1">
          <mxGeometry relative="1" as="geometry">
            <Array as="points" />
          </mxGeometry>
        </mxCell>
        <mxCell id="1sUiPSsAPYxyv5YN31Tx-1" value="A" style="ellipse;whiteSpace=wrap;html=1;aspect=fixed;" parent="1" vertex="1">
          <mxGeometry x="320" y="130" width="40" height="40" as="geometry" />
        </mxCell>
        <mxCell id="1sUiPSsAPYxyv5YN31Tx-12" style="edgeStyle=orthogonalEdgeStyle;orthogonalLoop=1;jettySize=auto;html=1;entryX=0.5;entryY=1;entryDx=0;entryDy=0;curved=1;" parent="1" source="1sUiPSsAPYxyv5YN31Tx-2" target="1sUiPSsAPYxyv5YN31Tx-5" edge="1">
          <mxGeometry relative="1" as="geometry" />
        </mxCell>
        <mxCell id="1sUiPSsAPYxyv5YN31Tx-23" style="edgeStyle=orthogonalEdgeStyle;rounded=1;orthogonalLoop=1;jettySize=auto;html=1;entryX=1;entryY=1;entryDx=0;entryDy=0;" parent="1" source="1sUiPSsAPYxyv5YN31Tx-2" target="1sUiPSsAPYxyv5YN31Tx-15" edge="1">
          <mxGeometry relative="1" as="geometry">
            <mxPoint x="250" y="158" as="targetPoint" />
            <Array as="points">
              <mxPoint x="340" y="310" />
              <mxPoint x="290" y="310" />
              <mxPoint x="290" y="164" />
            </Array>
          </mxGeometry>
        </mxCell>
        <mxCell id="1sUiPSsAPYxyv5YN31Tx-29" style="edgeStyle=orthogonalEdgeStyle;orthogonalLoop=1;jettySize=auto;html=1;entryX=1;entryY=0;entryDx=0;entryDy=0;curved=1;" parent="1" source="1sUiPSsAPYxyv5YN31Tx-2" target="1sUiPSsAPYxyv5YN31Tx-25" edge="1">
          <mxGeometry relative="1" as="geometry">
            <Array as="points">
              <mxPoint x="490" y="390" />
              <mxPoint x="490" y="66" />
            </Array>
          </mxGeometry>
        </mxCell>
        <mxCell id="1sUiPSsAPYxyv5YN31Tx-2" value="D" style="ellipse;whiteSpace=wrap;html=1;aspect=fixed;" parent="1" vertex="1">
          <mxGeometry x="320" y="360" width="40" height="40" as="geometry" />
        </mxCell>
        <mxCell id="1sUiPSsAPYxyv5YN31Tx-10" style="edgeStyle=orthogonalEdgeStyle;orthogonalLoop=1;jettySize=auto;html=1;entryX=0.5;entryY=0;entryDx=0;entryDy=0;curved=1;" parent="1" source="1sUiPSsAPYxyv5YN31Tx-3" target="1sUiPSsAPYxyv5YN31Tx-4" edge="1">
          <mxGeometry relative="1" as="geometry" />
        </mxCell>
        <mxCell id="1sUiPSsAPYxyv5YN31Tx-22" style="edgeStyle=orthogonalEdgeStyle;rounded=1;orthogonalLoop=1;jettySize=auto;html=1;entryX=1;entryY=1;entryDx=0;entryDy=0;" parent="1" source="1sUiPSsAPYxyv5YN31Tx-3" target="1sUiPSsAPYxyv5YN31Tx-15" edge="1">
          <mxGeometry relative="1" as="geometry">
            <Array as="points">
              <mxPoint x="290" y="240" />
              <mxPoint x="290" y="164" />
            </Array>
          </mxGeometry>
        </mxCell>
        <mxCell id="1sUiPSsAPYxyv5YN31Tx-27" style="edgeStyle=orthogonalEdgeStyle;orthogonalLoop=1;jettySize=auto;html=1;exitX=1;exitY=0.5;exitDx=0;exitDy=0;entryX=1;entryY=0;entryDx=0;entryDy=0;curved=1;" parent="1" source="1sUiPSsAPYxyv5YN31Tx-3" target="1sUiPSsAPYxyv5YN31Tx-25" edge="1">
          <mxGeometry relative="1" as="geometry">
            <Array as="points">
              <mxPoint x="480" y="240" />
              <mxPoint x="480" y="66" />
            </Array>
          </mxGeometry>
        </mxCell>
        <mxCell id="1sUiPSsAPYxyv5YN31Tx-3" value="B" style="ellipse;whiteSpace=wrap;html=1;aspect=fixed;" parent="1" vertex="1">
          <mxGeometry x="420" y="220" width="40" height="40" as="geometry" />
        </mxCell>
        <mxCell id="1sUiPSsAPYxyv5YN31Tx-11" style="edgeStyle=orthogonalEdgeStyle;orthogonalLoop=1;jettySize=auto;html=1;entryX=1;entryY=0;entryDx=0;entryDy=0;curved=1;exitX=0.5;exitY=1;exitDx=0;exitDy=0;" parent="1" source="1sUiPSsAPYxyv5YN31Tx-4" target="1sUiPSsAPYxyv5YN31Tx-2" edge="1">
          <mxGeometry relative="1" as="geometry">
            <mxPoint x="434" y="310" as="sourcePoint" />
            <mxPoint x="394" y="380" as="targetPoint" />
            <Array as="points">
              <mxPoint x="440" y="366" />
            </Array>
          </mxGeometry>
        </mxCell>
        <mxCell id="1sUiPSsAPYxyv5YN31Tx-16" style="edgeStyle=orthogonalEdgeStyle;rounded=1;orthogonalLoop=1;jettySize=auto;html=1;entryX=1;entryY=1;entryDx=0;entryDy=0;" parent="1" source="1sUiPSsAPYxyv5YN31Tx-4" target="1sUiPSsAPYxyv5YN31Tx-15" edge="1">
          <mxGeometry relative="1" as="geometry">
            <Array as="points">
              <mxPoint x="290" y="310" />
              <mxPoint x="290" y="164" />
            </Array>
          </mxGeometry>
        </mxCell>
        <mxCell id="1sUiPSsAPYxyv5YN31Tx-28" style="edgeStyle=orthogonalEdgeStyle;orthogonalLoop=1;jettySize=auto;html=1;entryX=1;entryY=0;entryDx=0;entryDy=0;curved=1;" parent="1" source="1sUiPSsAPYxyv5YN31Tx-4" target="1sUiPSsAPYxyv5YN31Tx-25" edge="1">
          <mxGeometry relative="1" as="geometry">
            <Array as="points">
              <mxPoint x="490" y="310" />
              <mxPoint x="490" y="66" />
            </Array>
          </mxGeometry>
        </mxCell>
        <mxCell id="1sUiPSsAPYxyv5YN31Tx-4" value="C" style="ellipse;whiteSpace=wrap;html=1;aspect=fixed;" parent="1" vertex="1">
          <mxGeometry x="420" y="290" width="40" height="40" as="geometry" />
        </mxCell>
        <mxCell id="1sUiPSsAPYxyv5YN31Tx-13" style="edgeStyle=orthogonalEdgeStyle;orthogonalLoop=1;jettySize=auto;html=1;entryX=0.5;entryY=1;entryDx=0;entryDy=0;curved=1;" parent="1" source="1sUiPSsAPYxyv5YN31Tx-5" target="1sUiPSsAPYxyv5YN31Tx-7" edge="1">
          <mxGeometry relative="1" as="geometry" />
        </mxCell>
        <mxCell id="1sUiPSsAPYxyv5YN31Tx-17" style="edgeStyle=orthogonalEdgeStyle;rounded=1;orthogonalLoop=1;jettySize=auto;html=1;entryX=1;entryY=1;entryDx=0;entryDy=0;exitX=0;exitY=0.5;exitDx=0;exitDy=0;" parent="1" source="1sUiPSsAPYxyv5YN31Tx-7" target="1sUiPSsAPYxyv5YN31Tx-15" edge="1">
          <mxGeometry relative="1" as="geometry">
            <Array as="points">
              <mxPoint x="290" y="240" />
              <mxPoint x="290" y="164" />
            </Array>
          </mxGeometry>
        </mxCell>
        <mxCell id="1sUiPSsAPYxyv5YN31Tx-30" style="edgeStyle=orthogonalEdgeStyle;orthogonalLoop=1;jettySize=auto;html=1;entryX=0;entryY=0.5;entryDx=0;entryDy=0;curved=1;" parent="1" source="1sUiPSsAPYxyv5YN31Tx-5" target="1sUiPSsAPYxyv5YN31Tx-25" edge="1">
          <mxGeometry relative="1" as="geometry">
            <Array as="points">
              <mxPoint x="170" y="310" />
              <mxPoint x="170" y="80" />
            </Array>
          </mxGeometry>
        </mxCell>
        <mxCell id="1sUiPSsAPYxyv5YN31Tx-5" value="E" style="ellipse;whiteSpace=wrap;html=1;aspect=fixed;" parent="1" vertex="1">
          <mxGeometry x="210" y="290" width="40" height="40" as="geometry" />
        </mxCell>
        <mxCell id="1sUiPSsAPYxyv5YN31Tx-8" value="A: Queued&lt;br&gt;B: Cropped&lt;br&gt;C: Segmented&lt;br&gt;D: Skeletonized&lt;br&gt;E: Restored&lt;br&gt;F: Rescaled&lt;br&gt;G: Finished&lt;br&gt;H: Canceled&lt;br&gt;I: Failed" style="text;html=1;align=left;verticalAlign=middle;resizable=0;points=[];autosize=1;strokeColor=none;fillColor=none;" parent="1" vertex="1">
          <mxGeometry x="520" y="170" width="110" height="140" as="geometry" />
        </mxCell>
        <mxCell id="tBsXaclavV-sVchKQHWA-2" style="edgeStyle=orthogonalEdgeStyle;rounded=0;orthogonalLoop=1;jettySize=auto;html=1;exitX=1;exitY=0;exitDx=0;exitDy=0;entryX=0;entryY=0;entryDx=0;entryDy=0;" parent="1" source="1sUiPSsAPYxyv5YN31Tx-15" target="1sUiPSsAPYxyv5YN31Tx-1" edge="1">
          <mxGeometry relative="1" as="geometry" />
        </mxCell>
        <mxCell id="1sUiPSsAPYxyv5YN31Tx-15" value="H" style="ellipse;whiteSpace=wrap;html=1;aspect=fixed;" parent="1" vertex="1">
          <mxGeometry x="210" y="130" width="40" height="40" as="geometry" />
        </mxCell>
        <mxCell id="1sUiPSsAPYxyv5YN31Tx-21" value="" style="edgeStyle=orthogonalEdgeStyle;rounded=1;orthogonalLoop=1;jettySize=auto;html=1;entryX=1;entryY=1;entryDx=0;entryDy=0;" parent="1" source="1sUiPSsAPYxyv5YN31Tx-5" target="1sUiPSsAPYxyv5YN31Tx-15" edge="1">
          <mxGeometry relative="1" as="geometry">
            <mxPoint x="230" y="290" as="sourcePoint" />
            <mxPoint x="260" y="190" as="targetPoint" />
            <Array as="points">
              <mxPoint x="290" y="310" />
              <mxPoint x="290" y="164" />
            </Array>
          </mxGeometry>
        </mxCell>
        <mxCell id="1sUiPSsAPYxyv5YN31Tx-32" style="edgeStyle=orthogonalEdgeStyle;orthogonalLoop=1;jettySize=auto;html=1;entryX=0;entryY=0.5;entryDx=0;entryDy=0;curved=1;" parent="1" source="1sUiPSsAPYxyv5YN31Tx-7" target="1sUiPSsAPYxyv5YN31Tx-25" edge="1">
          <mxGeometry relative="1" as="geometry">
            <Array as="points">
              <mxPoint x="180" y="240" />
              <mxPoint x="180" y="80" />
            </Array>
          </mxGeometry>
        </mxCell>
        <mxCell id="1sUiPSsAPYxyv5YN31Tx-39" style="edgeStyle=orthogonalEdgeStyle;rounded=0;orthogonalLoop=1;jettySize=auto;html=1;" parent="1" source="1sUiPSsAPYxyv5YN31Tx-7" target="1sUiPSsAPYxyv5YN31Tx-38" edge="1">
          <mxGeometry relative="1" as="geometry" />
        </mxCell>
        <mxCell id="1sUiPSsAPYxyv5YN31Tx-7" value="F" style="ellipse;whiteSpace=wrap;html=1;aspect=fixed;" parent="1" vertex="1">
          <mxGeometry x="210" y="220" width="40" height="40" as="geometry" />
        </mxCell>
        <mxCell id="1sUiPSsAPYxyv5YN31Tx-36" style="edgeStyle=orthogonalEdgeStyle;orthogonalLoop=1;jettySize=auto;html=1;exitX=1;exitY=1;exitDx=0;exitDy=0;entryX=1;entryY=0;entryDx=0;entryDy=0;curved=1;" parent="1" source="1sUiPSsAPYxyv5YN31Tx-25" target="1sUiPSsAPYxyv5YN31Tx-1" edge="1">
          <mxGeometry relative="1" as="geometry" />
        </mxCell>
        <mxCell id="1sUiPSsAPYxyv5YN31Tx-25" value="I" style="ellipse;whiteSpace=wrap;html=1;aspect=fixed;" parent="1" vertex="1">
          <mxGeometry x="320" y="60" width="40" height="40" as="geometry" />
        </mxCell>
        <mxCell id="1sUiPSsAPYxyv5YN31Tx-37" value="" style="endArrow=classic;html=1;rounded=0;entryX=0.5;entryY=1;entryDx=0;entryDy=0;" parent="1" target="1sUiPSsAPYxyv5YN31Tx-1" edge="1">
          <mxGeometry width="50" height="50" relative="1" as="geometry">
            <mxPoint x="340" y="210" as="sourcePoint" />
            <mxPoint x="470" y="220" as="targetPoint" />
            <Array as="points" />
          </mxGeometry>
        </mxCell>
        <mxCell id="1sUiPSsAPYxyv5YN31Tx-38" value="G" style="ellipse;whiteSpace=wrap;html=1;aspect=fixed;" parent="1" vertex="1">
          <mxGeometry x="100" y="220" width="40" height="40" as="geometry" />
        </mxCell>
      </root>
    </mxGraphModel>
  </diagram>
</mxfile>
